<?xml version="1.0" encoding="UTF-8" standalone="no"?><!DOCTYPE svg PUBLIC "-//W3C//DTD SVG 1.1//EN" "http://www.w3.org/Graphics/SVG/1.1/DTD/svg11.dtd"><svg width="100%" height="100%" viewBox="0 0 750 267" version="1.1" xmlns="http://www.w3.org/2000/svg" xmlns:xlink="http://www.w3.org/1999/xlink" xml:space="preserve" xmlns:serif="http://www.serif.com/" style="fill-rule:evenodd;clip-rule:evenodd;stroke-linejoin:round;stroke-miterlimit:2;"><g><path d="M506.979,5.983l-3.846,25.221c-8.337,-4.487 -14.533,-6.196 -21.162,-6.196c-17.525,0 -29.921,17.955 -29.921,43.388c0,17.525 8.338,28.212 22.012,28.212c5.771,0 12.184,-1.925 20.092,-5.983l-4.058,26.5c-8.763,2.567 -14.321,3.421 -20.946,3.421c-25.438,-0 -41.254,-19.233 -41.254,-50.013c-0,-41.466 21.804,-70.533 53.221,-70.533c4.062,-0 7.696,0.429 10.687,1.283l9.834,2.563c2.562,1.071 3.204,1.283 5.341,2.137Zm-219.721,111.142c-6.412,2.142 -11.541,3.208 -16.883,3.208c-11.971,0 -18.596,-7.266 -18.596,-20.733c0,-2.562 0.213,-5.558 0.642,-8.55l1.496,-9.187l1.066,-7.484l10.263,-64.333l23.508,-0l-2.779,13.891l12.183,0l-3.416,22.871l-11.971,0l-6.2,39.325c-0.213,1.713 -0.425,2.996 -0.425,3.85c-0,4.917 2.562,7.055 8.121,7.055c2.779,-0 4.704,-0.217 6.412,-0.855l-3.421,20.942Zm74.809,-0.854c-8.121,2.566 -15.817,3.85 -24.367,3.85c-26.287,-0 -40.179,-14.533 -40.179,-42.321c-0,-32.487 17.525,-56.213 41.25,-56.213c19.45,0 31.846,13.467 31.846,34.413c-0,6.837 -0.854,13.679 -2.992,23.296l-47.021,-0c-0.216,1.496 -0.216,2.137 -0.216,2.991c-0,11.117 7.054,16.676 20.733,16.676c8.337,-0 16.029,-1.925 24.579,-5.988l-3.633,23.296Zm-167.996,-62.408c-0,11.966 5.558,20.091 17.954,26.287c9.404,4.704 11.113,6.2 11.113,10.475c-0,5.771 -4.271,8.55 -13.463,8.55c-7.054,0 -13.467,-1.071 -21.162,-3.85l-3.205,21.8l5.342,1.071c1.496,0.212 3.421,0.641 6.2,0.854c5.554,0.429 10.046,0.854 13.037,0.854c24.792,0 36.334,-10.046 36.334,-31.417c-0,-12.825 -4.7,-20.52 -16.671,-26.291c-9.833,-4.7 -10.9,-5.771 -10.9,-10.259c0,-5.129 3.846,-7.695 11.542,-7.695c4.7,-0 10.9,0.641 16.883,1.495l3.421,-21.8c-6.196,-1.066 -15.388,-1.925 -20.733,-1.925c-26.717,0.005 -35.905,14.321 -35.692,31.851Zm370.833,64.333l-19.667,-0l0.43,-9.834c-5.984,7.909 -13.892,11.33 -24.792,11.33c-12.825,-0 -21.592,-10.471 -21.592,-25.65c0,-23.084 15.392,-36.334 41.467,-36.334c2.567,0 6.2,0.217 9.621,0.642c0.637,-3.204 0.854,-4.487 0.854,-6.196c0,-6.2 -4.062,-8.55 -15.175,-8.55c-6.629,0 -14.321,1.067 -19.667,2.779l-3.416,0.855l-2.138,0.637l3.204,-21.158c11.754,-3.634 19.663,-5.13 28.213,-5.13c20.304,0 30.991,9.617 30.991,27.571c0,4.705 -0.424,8.125 -1.92,18.809l-4.917,33.346l-0.642,5.983l-0.641,4.7l-0.43,3.208l0.217,2.992Zm-387.717,-0l-19.666,-0l0.429,-9.834c-5.988,7.909 -13.896,11.33 -24.796,11.33c-12.825,-0 -21.587,-10.471 -21.587,-25.65c-0,-23.084 15.391,-36.334 41.466,-36.334c2.78,0 6.2,0.217 9.617,0.642c0.642,-3.204 0.854,-4.487 0.854,-6.196c0,-6.2 -4.058,-8.55 -15.171,-8.55c-6.629,0 -14.321,1.067 -19.666,2.779l-2.992,1.067l-2.137,0.642l3.204,-21.163c11.758,-3.629 19.666,-5.129 28.212,-5.129c20.308,-0 30.996,9.621 30.996,27.575c-0,4.7 -0.429,8.121 -1.925,18.808l-4.704,33.554l-0.854,5.988l-0.642,4.7l-0.425,3.421l-0.213,2.35Zm518.096,-0l-22.446,-0l1.071,-9.192c-6.412,7.267 -13.254,10.475 -21.8,10.475c-17.312,0 -28.641,-15.604 -28.641,-39.112c-0,-31.421 17.525,-57.925 38.47,-57.925c9.192,-0 16.034,4.062 22.659,12.825l5.129,-33.129l23.296,-0l-17.738,116.058Zm13.68,-13.679c-0,-8.121 6.408,-14.746 14.104,-14.746c7.908,-0 14.108,6.625 14.108,14.746c-0,8.12 -6.2,14.75 -14.108,14.75c-7.696,0.212 -14.104,-6.413 -14.104,-14.75Zm-280.421,-81.217c-0.642,-0.217 -1.5,-0.217 -2.354,-0.217c-7.696,0 -12.184,4.063 -19.45,15.388l2.137,-14.321l-21.375,-0l-14.533,94.258l23.725,0c8.55,-57.708 10.687,-67.537 22.016,-67.537l1.709,-0c2.137,-11.329 4.916,-19.667 8.975,-27.358l-0.85,-0.213Zm202.404,0c-0.638,-0.217 -1.496,-0.217 -2.35,-0.217c-7.696,0 -12.184,4.063 -19.45,15.388l2.137,-14.321l-21.375,-0l-14.533,94.258l23.725,0c8.55,-57.708 10.687,-67.537 22.017,-67.537l1.708,-0c2.137,-11.329 5.129,-19.667 8.975,-27.358l-0.854,-0.213Zm-531.775,94.896l-23.509,-0l13.463,-89.129l-30.35,89.129l-16.029,-0l-1.925,-88.488l-14.321,88.488l-22.013,-0l18.38,-115.846l33.983,-0l0.858,71.817l23.084,-71.817l36.762,-0l-18.383,115.846Zm623.896,-2.138c5.987,0 10.687,-5.129 10.687,-11.329c0,-6.196 -4.917,-11.325 -10.687,-11.325c-5.984,0 -10.688,5.129 -10.688,11.325c0,6.2 4.704,11.329 10.688,11.329Zm-1.925,-4.916l-2.992,-0l-0,-13.038l5.346,0c1.066,0 2.35,0 3.204,0.642c1.071,0.641 1.496,1.925 1.496,3.208c-0,1.492 -0.854,2.775 -2.138,3.204l2.355,5.771l-3.209,0l-1.925,-5.129l-2.137,-0l-0,5.342Zm-0,-7.267l1.712,-0c0.642,-0 1.279,-0 1.708,-0.213c0.43,-0.212 0.642,-0.854 0.642,-1.495c0,-0.43 -0.212,-1.071 -0.642,-1.284c-0.429,-0.212 -1.283,-0.212 -1.708,-0.212l-1.496,-0l-0.216,3.204Zm-561.054,-27.571c-2.567,-0.212 -3.634,-0.425 -5.346,-0.425c-13.463,0 -20.092,4.913 -20.092,14.317c-0,5.771 3.421,9.616 8.55,9.616c9.404,0 16.458,-9.616 16.888,-23.508Zm387.716,0c-2.35,-0.212 -3.633,-0.425 -5.341,-0.425c-13.467,0 -20.309,4.913 -20.309,14.317c0,5.771 3.421,9.616 8.55,9.616c9.617,0 16.671,-9.616 17.1,-23.508Zm112.638,19.879c11.116,0 18.808,-13.041 18.808,-31.85c-0,-11.966 -4.488,-18.591 -12.608,-18.591c-10.688,-0 -18.384,13.25 -18.384,31.629c0,12.4 4.063,18.812 12.184,18.812Zm-311.625,-36.125c0.212,-1.92 0.212,-3.633 0.212,-4.7c0,-7.696 -4.062,-12.183 -11.112,-12.183c-7.484,-0 -12.825,5.983 -14.963,16.883l25.863,0Z" style="fill:#fd0c15;"/><path d="M555.071,210.104c-0,-23.725 -11.754,-42.321 -33.771,-42.321c-25.433,0 -41.892,22.442 -41.892,55.571c0,23.725 9.834,43.175 33.771,43.175c24.15,0 41.892,-17.1 41.892,-56.425Zm-486.463,-37.404c-4.275,-2.992 -10.258,-5.346 -18.383,-5.346c-8.975,0 -16.029,1.925 -16.029,11.329c-0,16.671 32.487,10.475 32.487,46.38c0,32.704 -21.375,41.25 -40.825,41.25c-8.546,-0 -18.591,-2.776 -25.858,-6.196l5.342,-23.938c4.487,4.059 13.25,6.838 20.733,6.838c7.05,-0 17.737,-1.925 17.737,-14.105c0,-19.024 -32.487,-11.97 -32.487,-45.312c0,-30.567 19.025,-39.542 37.404,-39.542c10.258,0 20.092,1.496 25.65,5.342l-5.771,23.3Zm65.404,89.554c-7.483,2.567 -14.749,3.846 -22.658,3.846c-24.579,0 -37.404,-14.533 -37.404,-42.317c0,-32.275 16.458,-56.212 38.475,-56.212c18.167,-0 29.708,13.25 29.708,34.408c0,6.842 -0.854,13.679 -2.779,23.3l-43.816,0c-0.213,1.496 -0.213,2.138 -0.213,2.992c0,10.9 6.625,16.458 19.45,16.458c7.908,0 14.962,-1.925 22.871,-5.987l-3.634,23.512Zm570.246,0c-7.696,2.567 -14.962,3.846 -22.654,3.846c-24.583,0 -37.621,-14.533 -37.621,-42.317c0,-32.275 16.459,-56.212 38.688,-56.212c18.166,-0 29.708,13.25 29.708,34.408c0,6.842 -0.854,13.679 -2.779,23.3l-43.817,0c-0.212,1.496 -0.212,2.138 -0.212,2.992c-0,10.9 6.625,16.458 19.45,16.458c7.908,0 14.962,-1.925 22.871,-5.987l-3.634,23.512Zm-307.779,0c-7.483,2.567 -14.75,3.846 -22.658,3.846c-24.792,0 -37.617,-14.533 -37.617,-42.317c0,-32.275 16.459,-56.212 38.475,-56.212c18.167,-0 29.921,13.25 29.921,34.408c0,6.842 -0.854,13.679 -2.779,23.3l-43.817,0c-0.212,1.496 -0.212,2.138 -0.212,2.992c-0,10.9 6.625,16.458 19.45,16.458c7.908,0 14.962,-1.925 22.871,-5.987l-3.634,23.512Zm-197.921,0c-4.487,2.138 -10.687,3.633 -19.662,3.633c-19.238,0 -31.204,-19.237 -31.204,-42.745c-0,-30.78 17.312,-55.146 42.745,-55.146c5.555,-0 14.105,2.35 20.734,6.2l-4.917,22.441c-4.704,-3.208 -9.621,-5.129 -14.75,-5.129c-11.754,0 -20.304,10.9 -20.304,30.138c0,11.112 6.2,20.304 15.817,20.304c5.771,-0 9.833,-1.283 14.746,-4.063l-3.205,24.367Zm288.329,-110.929l-3.633,25.221c-7.908,-4.488 -13.462,-6.2 -19.662,-6.2c-16.459,-0 -28,17.954 -28,43.391c-0,17.525 7.696,28.213 20.521,28.213c5.554,-0 11.537,-1.925 18.808,-5.987l-3.85,26.504c-8.121,2.566 -13.463,3.42 -19.663,3.42c-23.725,0 -38.687,-19.237 -38.687,-50.012c-0,-41.467 20.521,-70.533 49.8,-70.533c3.85,-0 7.054,0.425 9.833,1.279l8.979,2.566c2.992,0.855 3.634,1.071 5.554,2.138Zm-205.825,87.204c-1.07,8.121 -2.137,16.029 -2.779,24.367l-21.162,-0l1.712,-15.175l-0.212,-0c-6.629,10.258 -13.467,17.312 -25.65,17.312c-13.254,0 -20.517,-14.108 -20.517,-32.275c0,-6.412 0.425,-9.833 1.708,-19.662l5.984,-43.604l23.725,-0l-6.413,43.816c-0.641,4.704 -1.495,9.404 -1.495,14.321c-0,5.558 2.566,11.113 8.979,10.688c9.616,-0 15.387,-11.759 17.096,-25.65l6.625,-43.175l22.87,-0l-10.471,69.037Zm347.963,24.154l-20.946,0l1.067,-9.191c-5.983,7.266 -12.396,10.471 -20.517,10.471c-16.033,-0 -26.721,-15.601 -26.721,-39.113c0,-31.421 16.459,-57.921 35.909,-57.921c8.55,0 15.175,4.058 21.162,13.038l4.913,-33.13l21.804,0l-16.671,115.846Zm-288.117,-94.258c-0.641,-0.217 -1.495,-0.217 -2.354,-0.217c-7.266,0 -11.325,4.063 -18.166,15.392l2.137,-14.321l-19.875,0l-13.467,94.258l22.017,0c7.904,-57.708 10.042,-67.541 20.517,-67.541c0.641,-0 0.641,-0 1.708,0.212c1.925,-11.325 4.704,-19.662 8.338,-27.358l-0.855,-0.425Zm409.092,93.4l-3.421,0l0,-15.817l-3.208,15.817l-3.417,0l-3.208,-15.817l-0,15.817l-3.421,0l-0,-19.021l5.346,0l2.991,14.963l0.213,-0l2.992,-14.963l5.133,0l0,19.021Zm-23.725,0l-3.633,0l-0,-15.6l-5.129,-0l-0,-3.421l13.891,0l0,3.421l-5.129,-0l-0,15.6Zm-194.5,-51.937c0,21.374 -6.625,33.987 -17.1,33.987c-7.696,0.212 -12.183,-8.338 -12.183,-20.95c-0,-14.958 6.841,-32.058 17.525,-32.058c8.762,-0 11.758,9.191 11.758,19.021Zm64.546,30.566c10.475,0 17.525,-13.037 17.525,-31.846c-0,-11.971 -4.059,-18.383 -11.754,-18.383c-10.046,-0 -17.1,13.037 -17.1,31.633c-0,12.396 3.85,18.596 11.329,18.596Zm-474.709,-34.412c0,-1.925 0.217,-3.634 0.217,-4.7c0,-7.696 -3.85,-12.184 -10.475,-12.184c-7.054,0 -11.971,5.984 -14.108,16.884l24.366,-0Zm570.25,-0c0,-1.925 0.213,-3.634 0.213,-4.7c-0,-7.696 -3.846,-12.184 -10.471,-12.184c-7.054,0 -11.971,5.984 -14.108,16.884l24.366,-0Zm-307.779,-0c0.213,-1.925 0.213,-3.634 0.213,-4.7c-0,-7.696 -3.846,-12.184 -10.475,-12.184c-7.05,0 -11.967,5.984 -14.104,16.884l24.366,-0Z" style="fill:#f3ae12;"/></g></svg>