<?xml version="1.0" encoding="UTF-8" standalone="no"?><!DOCTYPE svg PUBLIC "-//W3C//DTD SVG 1.1//EN" "http://www.w3.org/Graphics/SVG/1.1/DTD/svg11.dtd"><svg width="100%" height="100%" viewBox="0 0 898 898" version="1.1" xmlns="http://www.w3.org/2000/svg" xmlns:xlink="http://www.w3.org/1999/xlink" xml:space="preserve" xmlns:serif="http://www.serif.com/" style="fill-rule:evenodd;clip-rule:evenodd;stroke-linejoin:round;stroke-miterlimit:2;"><g><g><rect x="-0" y="-0" width="898" height="449" style="fill:#fff;"/><path d="M445.404,109.398l-49.376,230.816l-59.718,0l49.393,-230.816l59.701,0Zm251.216,149.036l31.433,-86.666l18.094,86.666l-49.527,-0Zm66.629,81.78l55.227,0l-48.207,-230.816l-50.963,0c-11.464,0 -21.129,6.661 -25.419,16.928l-89.594,213.888l62.684,0l12.456,-34.481l76.601,0l7.215,34.481Zm-155.853,-75.362c0.266,-60.913 -84.237,-64.279 -83.652,-91.494c0.181,-8.275 8.066,-17.074 25.326,-19.329c8.542,-1.115 32.137,-1.98 58.866,10.322l10.492,-48.939c-14.378,-5.22 -32.855,-10.236 -55.866,-10.236c-59.013,0 -100.559,31.379 -100.89,76.297c-0.394,33.243 29.647,51.768 52.28,62.821c23.253,11.31 31.053,18.57 30.968,28.683c-0.175,15.494 -18.556,22.322 -35.74,22.592c-30.02,0.466 -47.443,-8.114 -61.326,-14.584l-10.811,50.581c13.938,6.401 39.692,11.984 66.4,12.257c62.732,0 103.758,-30.974 103.953,-78.971Zm-247.316,-155.454l-96.741,230.816l-63.116,0l-47.611,-184.207c-2.891,-11.341 -5.395,-15.505 -14.184,-20.273c-14.354,-7.797 -38.056,-15.105 -58.904,-19.641l1.407,-6.695l101.605,0c12.946,0 24.594,8.611 27.536,23.53l25.145,133.572l62.144,-157.102l62.719,0Z" style="fill:#212263;"/></g><g><rect x="-0" y="449" width="898" height="449" style="fill:#212263;"/><path d="M200.114,679.763c-13.054,-3.753 -22.554,-8.364 -28.5,-13.834c-5.946,-5.47 -8.918,-12.222 -8.918,-20.255c-0,-9.09 3.633,-16.608 10.9,-22.554c7.267,-5.945 16.714,-8.918 28.341,-8.918c7.928,-0 14.996,1.532 21.206,4.598c6.21,3.065 11.02,7.293 14.429,12.684c3.408,5.391 5.113,11.283 5.113,17.678l-15.3,0c-0,-7.001 -2.22,-12.503 -6.66,-16.508c-4.439,-4.004 -10.702,-6.006 -18.788,-6.006c-7.505,0 -13.358,1.655 -17.559,4.964c-4.202,3.309 -6.303,7.902 -6.303,13.779c0,4.712 1.995,8.697 5.985,11.953c3.991,3.256 10.782,6.234 20.374,8.934c9.593,2.701 17.097,5.676 22.515,8.926c5.417,3.251 9.433,7.043 12.05,11.376c2.616,4.334 3.924,9.434 3.924,15.301c-0,9.354 -3.647,16.846 -10.94,22.474c-7.294,5.629 -17.045,8.443 -29.253,8.443c-7.928,0 -15.327,-1.519 -22.197,-4.558c-6.871,-3.039 -12.169,-7.201 -15.895,-12.486c-3.726,-5.285 -5.589,-11.284 -5.589,-17.996l15.3,0c0,6.977 2.577,12.486 7.73,16.529c5.152,4.043 12.036,6.065 20.651,6.065c8.033,-0 14.19,-1.638 18.471,-4.915c4.281,-3.277 6.421,-7.743 6.421,-13.398c0,-5.655 -1.981,-10.028 -5.945,-13.12c-3.964,-3.092 -11.152,-6.144 -21.563,-9.156Zm341.52,-63.976l-0,78.483c-0.053,10.887 -3.475,19.793 -10.267,26.716c-6.791,6.924 -16,10.808 -27.627,11.654l-4.043,0.158c-12.631,0 -22.699,-3.409 -30.204,-10.226c-7.505,-6.818 -11.31,-16.199 -11.416,-28.143l0,-78.642l15.062,0l0,78.166c0,8.351 2.299,14.838 6.897,19.462c4.598,4.625 11.152,6.937 19.661,6.937c8.614,-0 15.208,-2.299 19.779,-6.897c4.572,-4.598 6.857,-11.072 6.857,-19.423l0,-78.245l15.301,0Zm-102.028,78.8c-1.427,12.209 -5.933,21.629 -13.517,28.262c-7.584,6.633 -17.665,9.949 -30.243,9.949c-13.636,0 -24.563,-4.888 -32.781,-14.666c-8.218,-9.777 -12.327,-22.858 -12.327,-39.241l-0,-11.099c-0,-10.729 1.916,-20.162 5.747,-28.301c3.832,-8.139 9.262,-14.389 16.291,-18.749c7.029,-4.36 15.168,-6.54 24.417,-6.54c12.262,-0 22.092,3.422 29.491,10.266c7.399,6.844 11.706,16.318 12.922,28.42l-15.3,0c-1.322,-9.224 -4.189,-15.903 -8.602,-20.038c-4.413,-4.135 -10.583,-6.202 -18.511,-6.202c-9.724,0 -17.348,3.597 -22.871,10.791c-5.523,7.194 -8.284,17.429 -8.284,30.705l-0,11.188c-0,12.536 2.616,22.507 7.848,29.912c5.232,7.405 12.552,11.108 21.96,11.108c8.456,-0 14.943,-1.916 19.462,-5.748c4.519,-3.831 7.518,-10.504 8.998,-20.017l15.3,0Zm-111.938,-16.727l-50.023,0l0,40.906l58.11,0l-0,12.447l-73.331,-0l0,-115.426l72.538,0l-0,12.447l-57.317,-0l0,37.18l50.023,-0l0,12.446Zm403.197,0l-50.023,0l-0,40.906l58.109,0l0,12.447l-73.33,-0l-0,-115.426l72.537,0l0,12.447l-57.316,-0l-0,37.18l50.023,-0l-0,12.446Zm-122.877,6.659l-27.113,0l0,46.694l-15.3,-0l-0,-115.426l38.211,0c13.001,0 23.003,2.96 30.006,8.879c7.002,5.919 10.504,14.534 10.504,25.844c-0,7.188 -1.942,13.45 -5.827,18.788c-3.884,5.338 -9.288,9.328 -16.212,11.971l27.112,48.992l0,0.952l-16.33,-0l-25.051,-46.694Zm-27.113,-12.446l23.387,0c7.557,0 13.569,-1.959 18.035,-5.877c4.466,-3.918 6.699,-9.16 6.699,-15.726c-0,-7.147 -2.128,-12.627 -6.382,-16.439c-4.255,-3.812 -10.398,-5.745 -18.432,-5.797l-23.307,-0l0,43.839Z" style="fill:#fff;fill-rule:nonzero;"/></g></g></svg>