<svg width="100%" height="100%" viewBox="0 0 1424 2139" version="1.1" xmlns="http://www.w3.org/2000/svg"
  xmlns:xlink="http://www.w3.org/1999/xlink" xml:space="preserve"
  style="fill-rule:evenodd;clip-rule:evenodd;stroke-linejoin:round;stroke-miterlimit:2;">
  <path
    d="M826.405,1074.92c139.535,139.535 139.535,366.104 -0,505.64c-139.535,139.535 -366.105,139.535 -505.64,-0l-320.765,320.764c316.57,316.571 830.6,316.571 1147.17,0c316.57,-316.57 316.57,-830.599 -0,-1147.17l-320.765,320.765Zm-229.572,-11.092c-139.535,-139.535 -139.535,-366.104 0,-505.639c139.536,-139.536 366.105,-139.536 505.64,-0l320.765,-320.765c-316.57,-316.571 -830.599,-316.571 -1147.17,-0c-316.57,316.57 -316.57,830.599 0,1147.17l320.765,-320.765Z"
    style="fill:#0073BE;" />
</svg>